<svg width="193" height="55" viewBox="0 0 193 55" fill="none" xmlns="http://www.w3.org/2000/svg">
<path d="M177.631 0.500175H15.378C14.7866 0.500175 14.2022 0.500175 13.6124 0.502875C13.1186 0.505575 12.6287 0.513419 12.1302 0.52002C11.0472 0.530688 9.96677 0.610438 8.89825 0.758578C7.83122 0.909943 6.79763 1.19531 5.83241 1.60503C4.86838 2.01821 3.98752 2.55509 3.22178 3.19621C2.45202 3.83552 1.81036 4.57448 1.32149 5.38468C0.831262 6.19325 0.491339 7.05972 0.313457 7.95415C0.133884 8.84745 0.0372542 9.75105 0.0244347 10.6568C0.00946742 11.0707 0.00788683 11.486 0 11.9V43.1041C0.00788683 43.5233 0.00946742 43.9294 0.0244347 44.3487C0.0372581 45.2545 0.133888 46.158 0.313457 47.0513C0.490848 47.9462 0.830791 48.8132 1.32149 49.6221C1.81014 50.4296 2.45189 51.1656 3.22178 51.8014C3.98461 52.4453 4.86605 52.9826 5.83241 53.3926C6.79762 53.8034 7.83111 54.0905 8.89825 54.2442C9.96695 54.3911 11.0473 54.4709 12.1302 54.4829C12.6287 54.492 13.1186 54.4973 13.6124 54.4973C14.2022 54.5 14.7866 54.5 15.378 54.5H177.631C178.21 54.5 178.799 54.5 179.379 54.4973C179.87 54.4973 180.374 54.492 180.866 54.4829C181.947 54.4715 183.025 54.3918 184.092 54.2442C185.162 54.0894 186.199 53.8024 187.169 53.3926C188.135 52.9823 189.015 52.4451 189.778 51.8014C190.545 51.1631 191.189 50.4277 191.683 49.6221C192.17 48.8126 192.507 47.9457 192.682 47.0513C192.862 46.1579 192.962 45.2545 192.981 44.3487C192.987 43.9294 192.987 43.5233 192.987 43.1041C193 42.6137 193 42.1259 193 41.6275V13.3739C193 12.8795 193 12.3891 192.987 11.9C192.987 11.486 192.987 11.0707 192.981 10.6568C192.962 9.75092 192.862 8.84752 192.682 7.9541C192.507 7.06018 192.17 6.19379 191.683 5.38462C190.688 3.76068 189.109 2.4388 187.169 1.6049C186.199 1.19619 185.162 0.910899 184.092 0.758457C183.025 0.609664 181.947 0.529886 180.866 0.519831C180.374 0.513243 179.87 0.505332 179.379 0.5027C178.799 0.5 178.21 0.5 177.631 0.5V0.500175Z" fill="#A6A6A6"/>
<path d="M13.6204 53.3185C13.129 53.3185 12.6495 53.3132 12.1619 53.304C11.1519 53.293 10.1443 53.2194 9.14728 53.0839C8.21762 52.9498 7.31703 52.7005 6.47521 52.3442C5.64111 51.9908 4.88035 51.5274 4.22206 50.9718C3.55424 50.4227 2.99826 49.7859 2.57613 49.0865C2.14935 48.3826 1.854 47.6281 1.70035 46.8493C1.53443 46.0125 1.44466 45.1663 1.43182 44.3181C1.42159 44.0334 1.4082 43.0854 1.4082 43.0854V11.8997C1.4082 11.8997 1.42246 10.9663 1.4319 10.6921C1.4442 9.84523 1.53344 9.00036 1.69887 8.16482C1.8528 7.38387 2.14838 6.6272 2.57539 5.92099C2.99596 5.22211 3.54886 4.5848 4.21266 4.03376C4.8757 3.47749 5.6389 3.01171 6.47442 2.65343C7.3143 2.29823 8.21319 2.05069 9.14097 1.91912C10.1413 1.78218 11.1524 1.70815 12.1659 1.69764L13.6212 1.68115H179.371L180.844 1.6983C181.848 1.70829 182.85 1.78166 183.841 1.91779C184.778 2.05102 185.687 2.30028 186.536 2.65739C188.21 3.37943 189.572 4.52176 190.431 5.92428C190.851 6.62562 191.142 7.37612 191.294 8.15032C191.462 8.99272 191.556 9.84422 191.575 10.698C191.579 11.0804 191.579 11.491 191.579 11.8997C191.592 12.406 191.592 12.8878 191.592 13.3736V41.6273C191.592 42.1177 191.592 42.5963 191.579 43.0788C191.579 43.5178 191.579 43.92 191.573 44.3339C191.554 45.1724 191.462 46.0088 191.298 46.8361C191.147 47.6205 190.853 48.3809 190.427 49.0906C190.001 49.7823 189.449 50.4137 188.789 50.9613C188.13 51.5199 187.368 51.986 186.532 52.3416C185.684 52.7007 184.777 52.9509 183.841 53.0839C182.844 53.2201 181.837 53.2938 180.827 53.304C180.354 53.3132 179.86 53.3185 179.379 53.3185L177.631 53.3212L13.6204 53.3185Z" fill="black"/>
<path d="M49.4036 26.64C49.4181 25.5132 49.7163 24.4084 50.2706 23.4283C50.8248 22.4483 51.6171 21.6249 52.5737 21.0347C51.966 20.1638 51.1643 19.447 50.2323 18.9413C49.3003 18.4357 48.2637 18.1551 47.2047 18.1219C44.9458 17.8839 42.7558 19.4784 41.6047 19.4784C40.4313 19.4784 38.659 18.1455 36.7505 18.1849C35.516 18.2249 34.313 18.5852 33.2585 19.2305C32.204 19.8759 31.3341 20.7844 30.7335 21.8675C28.1318 26.3879 30.0724 33.0312 32.5646 36.6852C33.8115 38.4744 35.2687 40.473 37.1755 40.4021C39.0414 40.3244 39.7383 39.2081 41.9905 39.2081C44.2219 39.2081 44.8757 40.4021 46.8212 40.357C48.8234 40.3244 50.0849 38.5599 51.288 36.7537C52.1839 35.4788 52.8733 34.0698 53.3306 32.5788C52.1674 32.0851 51.1747 31.2587 50.4764 30.2026C49.7781 29.1465 49.405 27.9074 49.4036 26.64Z" fill="white"/>
<path d="M45.7286 15.7196C46.8203 14.4045 47.3581 12.714 47.2279 11.0073C45.5601 11.1831 44.0195 11.9831 42.913 13.2478C42.3721 13.8656 41.9577 14.5844 41.6937 15.3631C41.4298 16.1417 41.3213 16.9649 41.3745 17.7857C42.2087 17.7943 43.034 17.6128 43.7882 17.2549C44.5424 16.8971 45.2059 16.3721 45.7286 15.7196Z" fill="white"/>
<path d="M72.99 35.8727H66.6226L65.0935 40.4039H62.3965L68.4276 23.6397H71.2297L77.2608 40.4039H74.5178L72.99 35.8727ZM67.2821 33.7818H72.3293L69.8412 26.428H69.7716L67.2821 33.7818Z" fill="white"/>
<path d="M90.285 34.2933C90.285 38.0915 88.2593 40.5318 85.2023 40.5318C84.4279 40.5724 83.6578 40.3934 82.9801 40.0152C82.3024 39.637 81.7445 39.075 81.3703 38.3934H81.3124V44.4473H78.8125V28.1814H81.2324V30.2143H81.2783C81.6697 29.536 82.237 28.9768 82.9199 28.5963C83.6028 28.2158 84.3757 28.0283 85.1563 28.0535C88.2474 28.0535 90.285 30.5057 90.285 34.2933ZM87.7154 34.2933C87.7154 31.8188 86.4411 30.1919 84.4969 30.1919C82.5868 30.1919 81.302 31.853 81.302 34.2933C81.302 36.756 82.5868 38.4053 84.4969 38.4053C86.4411 38.4053 87.7154 36.7903 87.7154 34.2933Z" fill="white"/>
<path d="M103.691 34.2933C103.691 38.0915 101.666 40.5317 98.6086 40.5317C97.8342 40.5724 97.064 40.3934 96.3863 40.0152C95.7086 39.637 95.1507 39.0749 94.7765 38.3934H94.7187V44.4472H92.2188V28.1814H94.6385V30.2143H94.6845C95.0759 29.536 95.6432 28.9768 96.3261 28.5963C97.009 28.2158 97.7819 28.0283 98.5625 28.0535C101.654 28.0535 103.691 30.5057 103.691 34.2933ZM101.122 34.2933C101.122 31.8188 99.8473 30.1919 97.9031 30.1919C95.993 30.1919 94.7082 31.853 94.7082 34.2933C94.7082 36.756 95.993 38.4052 97.9031 38.4052C99.8474 38.4052 101.122 36.7903 101.122 34.2933H101.122Z" fill="white"/>
<path d="M112.551 35.7332C112.737 37.3956 114.346 38.4872 116.545 38.4872C118.652 38.4872 120.168 37.3956 120.168 35.8966C120.168 34.5954 119.254 33.8163 117.089 33.2823L114.924 32.7589C111.856 32.0154 110.432 30.5757 110.432 28.2396C110.432 25.3471 112.944 23.3604 116.511 23.3604C120.041 23.3604 122.46 25.3471 122.542 28.2396H120.018C119.867 26.5666 118.489 25.5567 116.475 25.5567C114.461 25.5567 113.083 26.5785 113.083 28.0656C113.083 29.2508 113.963 29.9482 116.117 30.4821L117.957 30.9356C121.384 31.749 122.809 33.1307 122.809 35.5828C122.809 38.7191 120.319 40.6835 116.36 40.6835C112.655 40.6835 110.154 38.7653 109.992 35.7331L112.551 35.7332Z" fill="white"/>
<path d="M128.203 25.29V28.1825H130.519V30.1693H128.203V36.9074C128.203 37.9542 128.666 38.442 129.684 38.442C129.959 38.4371 130.234 38.4178 130.507 38.3839V40.3588C130.049 40.4446 129.584 40.4835 129.118 40.4748C126.652 40.4748 125.691 39.5454 125.691 37.175V30.1693H123.92V28.1825H125.691V25.29H128.203Z" fill="white"/>
<path d="M131.859 34.2944C131.859 30.4488 134.116 28.0322 137.636 28.0322C141.167 28.0322 143.413 30.4487 143.413 34.2944C143.413 38.1506 141.179 40.5566 137.636 40.5566C134.094 40.5566 131.859 38.1506 131.859 34.2944ZM140.866 34.2944C140.866 31.6564 139.661 30.0994 137.636 30.0994C135.61 30.0994 134.407 31.6683 134.407 34.2944C134.407 36.943 135.61 38.4881 137.636 38.4881C139.661 38.4881 140.866 36.943 140.866 34.2944H140.866Z" fill="white"/>
<path d="M145.477 28.1813H147.861V30.2616H147.919C148.08 29.6119 148.459 29.0377 148.993 28.6356C149.526 28.2334 150.182 28.0278 150.848 28.0534C151.136 28.0524 151.424 28.0838 151.705 28.147V30.4937C151.341 30.3821 150.962 30.3309 150.582 30.3421C150.218 30.3273 149.856 30.3915 149.52 30.5304C149.184 30.6693 148.882 30.8796 148.634 31.1467C148.387 31.4139 148.2 31.7316 148.086 32.0781C147.973 32.4246 147.935 32.7917 147.977 33.1541V40.4038H145.477L145.477 28.1813Z" fill="white"/>
<path d="M163.229 36.8151C162.892 39.0339 160.739 40.5566 157.984 40.5566C154.441 40.5566 152.242 38.1743 152.242 34.3524C152.242 30.5186 154.453 28.0322 157.879 28.0322C161.249 28.0322 163.368 30.3552 163.368 34.0611V34.9206H154.766V35.0722C154.726 35.5221 154.782 35.9752 154.93 36.4016C155.079 36.828 155.316 37.2178 155.625 37.5453C155.935 37.8727 156.311 38.1302 156.728 38.3007C157.144 38.4713 157.592 38.5508 158.042 38.5342C158.633 38.5898 159.226 38.4525 159.732 38.1427C160.239 37.833 160.633 37.3674 160.855 36.8151L163.229 36.8151ZM154.778 33.1672H160.867C160.889 32.7628 160.828 32.358 160.687 31.9784C160.546 31.5988 160.329 31.2524 160.048 30.9612C159.768 30.6699 159.43 30.4399 159.057 30.2857C158.684 30.1315 158.283 30.0564 157.879 30.0651C157.472 30.0627 157.069 30.1412 156.692 30.2961C156.315 30.451 155.973 30.6792 155.684 30.9676C155.396 31.256 155.167 31.5989 155.012 31.9764C154.856 32.354 154.777 32.7587 154.778 33.1672V33.1672Z" fill="white"/>
<path d="M66.9677 11.0218C67.4918 10.984 68.0177 11.0635 68.5075 11.2544C68.9973 11.4454 69.4388 11.743 69.8001 12.1259C70.1614 12.5088 70.4335 12.9674 70.5968 13.4686C70.7602 13.9698 70.8106 14.5011 70.7445 15.0243C70.7445 17.5977 69.3586 19.077 66.9677 19.077H64.0684V11.0218H66.9677ZM65.315 17.9378H66.8284C67.2029 17.9603 67.5777 17.8986 67.9255 17.7574C68.2733 17.6162 68.5853 17.3989 68.8389 17.1214C69.0925 16.8439 69.2812 16.5131 69.3913 16.1532C69.5014 15.7932 69.5302 15.4132 69.4755 15.0407C69.5262 14.6697 69.4945 14.292 69.3827 13.9347C69.2709 13.5774 69.0817 13.2493 68.8287 12.974C68.5758 12.6987 68.2652 12.483 67.9194 12.3423C67.5736 12.2016 67.201 12.1393 66.8284 12.1601H65.315V17.9378Z" fill="white"/>
<path d="M72.1522 16.0359C72.1141 15.6364 72.1596 15.2334 72.2859 14.8526C72.4121 14.4718 72.6163 14.1217 72.8852 13.8247C73.1542 13.5277 73.482 13.2905 73.8477 13.1281C74.2134 12.9657 74.6089 12.8818 75.0088 12.8818C75.4087 12.8818 75.8042 12.9657 76.1699 13.1281C76.5356 13.2905 76.8634 13.5277 77.1324 13.8247C77.4013 14.1217 77.6055 14.4718 77.7317 14.8526C77.8579 15.2334 77.9035 15.6364 77.8654 16.0359C77.9042 16.4358 77.8592 16.8395 77.7333 17.2209C77.6074 17.6023 77.4034 17.953 77.1344 18.2506C76.8653 18.5481 76.5372 18.7859 76.1712 18.9486C75.8051 19.1114 75.4092 19.1954 75.0088 19.1954C74.6084 19.1954 74.2125 19.1114 73.8464 18.9486C73.4804 18.7859 73.1523 18.5481 72.8832 18.2506C72.6142 17.953 72.4102 17.6023 72.2843 17.2209C72.1584 16.8395 72.1134 16.4358 72.1522 16.0359ZM76.6358 16.0359C76.6358 14.7182 76.0459 13.9477 75.0108 13.9477C73.9716 13.9477 73.3871 14.7182 73.3871 16.036C73.3871 17.3642 73.9717 18.1288 75.0108 18.1288C76.046 18.1288 76.6358 17.3589 76.6358 16.0359H76.6358Z" fill="white"/>
<path d="M85.4598 19.077H84.2197L82.9678 14.5998H82.8732L81.6265 19.077H80.3982L78.7285 12.998H79.9411L81.0262 17.6366H81.1155L82.3609 12.998H83.5077L84.7531 17.6366H84.8477L85.9275 12.998H87.123L85.4598 19.077Z" fill="white"/>
<path d="M88.5274 12.9973H89.6781V13.963H89.7675C89.919 13.6162 90.1746 13.3254 90.4986 13.1313C90.8227 12.9372 91.199 12.8493 91.5751 12.88C91.8698 12.8578 92.1658 12.9024 92.441 13.0105C92.7162 13.1186 92.9637 13.2875 93.165 13.5047C93.3664 13.7218 93.5165 13.9816 93.6042 14.2649C93.6919 14.5481 93.715 14.8476 93.6717 15.141V19.0762H92.4763V15.4422C92.4763 14.4653 92.0533 13.9795 91.1692 13.9795C90.9691 13.9702 90.7693 14.0044 90.5836 14.0797C90.3979 14.1551 90.2306 14.2699 90.0932 14.4162C89.9558 14.5625 89.8516 14.7369 89.7877 14.9274C89.7237 15.118 89.7016 15.3201 89.7228 15.52V19.0763H88.5273L88.5274 12.9973Z" fill="white"/>
<path d="M95.5781 10.625H96.7736V19.077H95.5781V10.625Z" fill="white"/>
<path d="M98.4334 16.0341C98.3953 15.6346 98.4409 15.2315 98.5672 14.8507C98.6934 14.4699 98.8976 14.1198 99.1666 13.8228C99.4356 13.5258 99.7635 13.2885 100.129 13.1261C100.495 12.9638 100.89 12.8799 101.29 12.8799C101.69 12.8799 102.086 12.9638 102.451 13.1261C102.817 13.2885 103.145 13.5258 103.414 13.8228C103.683 14.1198 103.887 14.4699 104.013 14.8507C104.14 15.2315 104.185 15.6346 104.147 16.0341C104.186 16.434 104.141 16.8376 104.015 17.219C103.889 17.6005 103.685 17.9512 103.416 18.2487C103.147 18.5463 102.819 18.7841 102.453 18.9468C102.087 19.1095 101.691 19.1936 101.29 19.1936C100.89 19.1936 100.494 19.1095 100.128 18.9468C99.7618 18.7841 99.4337 18.5463 99.1647 18.2487C98.8956 17.9512 98.6916 17.6005 98.5656 17.219C98.4397 16.8376 98.3946 16.434 98.4334 16.0341ZM102.917 16.0341C102.917 14.7164 102.327 13.9458 101.292 13.9458C100.253 13.9458 99.6683 14.7164 99.6683 16.0341C99.6683 17.3624 100.253 18.127 101.292 18.127C102.327 18.127 102.917 17.3571 102.917 16.0341H102.917Z" fill="white"/>
<path d="M105.406 17.359C105.406 16.2647 106.218 15.6339 107.659 15.5442L109.3 15.4493V14.9246C109.3 14.2826 108.877 13.92 108.06 13.92C107.393 13.92 106.93 14.1659 106.797 14.5957H105.64C105.762 13.5516 106.741 12.8818 108.115 12.8818C109.634 12.8818 110.49 13.6405 110.49 14.9246V19.0781H109.339V18.2238H109.245C109.053 18.5303 108.783 18.7801 108.464 18.9478C108.144 19.1154 107.786 19.195 107.425 19.1783C107.171 19.2048 106.914 19.1776 106.671 19.0983C106.428 19.0191 106.204 18.8896 106.014 18.7182C105.823 18.5468 105.671 18.3373 105.566 18.1032C105.462 17.869 105.407 17.6155 105.406 17.359ZM109.3 16.8395V16.3313L107.821 16.4262C106.987 16.4822 106.608 16.767 106.608 17.3029C106.608 17.85 107.081 18.1684 107.732 18.1684C107.922 18.1878 108.115 18.1685 108.297 18.1116C108.48 18.0548 108.65 17.9617 108.796 17.8377C108.943 17.7137 109.063 17.5614 109.149 17.3899C109.236 17.2185 109.287 17.0313 109.3 16.8395Z" fill="white"/>
<path d="M112.062 16.0349C112.062 14.114 113.046 12.8972 114.577 12.8972C114.955 12.8797 115.331 12.9707 115.66 13.1596C115.989 13.3484 116.258 13.6273 116.434 13.9637H116.524V10.625H117.719V19.077H116.574V18.1165H116.479C116.289 18.4507 116.011 18.7261 115.675 18.9131C115.34 19.1 114.96 19.1913 114.577 19.1772C113.036 19.1772 112.062 17.9603 112.062 16.0349ZM113.297 16.0349C113.297 17.3242 113.903 18.1001 114.916 18.1001C115.923 18.1001 116.546 17.3131 116.546 16.0402C116.546 14.7732 115.917 13.975 114.916 13.975C113.91 13.975 113.297 14.7561 113.297 16.0349H113.297Z" fill="white"/>
<path d="M122.664 16.0359C122.626 15.6364 122.671 15.2334 122.798 14.8526C122.924 14.4718 123.128 14.1217 123.397 13.8247C123.666 13.5277 123.994 13.2905 124.359 13.1281C124.725 12.9657 125.121 12.8818 125.521 12.8818C125.92 12.8818 126.316 12.9657 126.682 13.1281C127.047 13.2905 127.375 13.5277 127.644 13.8247C127.913 14.1217 128.117 14.4718 128.243 14.8526C128.37 15.2334 128.415 15.6364 128.377 16.0359C128.416 16.4358 128.371 16.8395 128.245 17.2209C128.119 17.6023 127.915 17.953 127.646 18.2506C127.377 18.5481 127.049 18.7859 126.683 18.9486C126.317 19.1114 125.921 19.1954 125.521 19.1954C125.12 19.1954 124.724 19.1114 124.358 18.9486C123.992 18.7859 123.664 18.5481 123.395 18.2506C123.126 17.953 122.922 17.6023 122.796 17.2209C122.67 16.8395 122.625 16.4358 122.664 16.0359ZM127.148 16.0359C127.148 14.7182 126.558 13.9477 125.522 13.9477C124.483 13.9477 123.899 14.7182 123.899 16.036C123.899 17.3642 124.483 18.1288 125.522 18.1288C126.558 18.1288 127.148 17.3589 127.148 16.0359Z" fill="white"/>
<path d="M129.982 12.9974H131.133V13.963H131.223C131.374 13.6162 131.63 13.3255 131.954 13.1313C132.278 12.9372 132.654 12.8493 133.03 12.88C133.325 12.8578 133.621 12.9024 133.896 13.0105C134.171 13.1186 134.419 13.2875 134.62 13.5047C134.821 13.7218 134.972 13.9816 135.059 14.2649C135.147 14.5481 135.17 14.8476 135.127 15.141V19.0762H133.931V15.4423C133.931 14.4654 133.508 13.9795 132.624 13.9795C132.424 13.9702 132.224 14.0044 132.039 14.0797C131.853 14.1551 131.686 14.2699 131.548 14.4162C131.411 14.5625 131.307 14.7369 131.243 14.9274C131.179 15.118 131.157 15.3201 131.178 15.52V19.0763H129.982V12.9974Z" fill="white"/>
<path d="M141.881 11.4844V13.0255H143.193V14.0361H141.881V17.1619C141.881 17.7986 142.142 18.0775 142.738 18.0775C142.89 18.077 143.042 18.0677 143.193 18.0498V19.0491C142.979 19.0876 142.761 19.1081 142.543 19.1104C141.214 19.1104 140.684 18.6411 140.684 17.469V14.036H139.723V13.0255H140.684V11.4844H141.881Z" fill="white"/>
<path d="M144.826 10.625H146.011V13.9749H146.106C146.265 13.6249 146.527 13.3325 146.858 13.1376C147.188 12.9427 147.571 12.8549 147.953 12.886C148.246 12.87 148.539 12.9191 148.811 13.0299C149.083 13.1406 149.328 13.3103 149.527 13.5267C149.726 13.7432 149.875 14.0011 149.964 14.2821C150.052 14.5631 150.078 14.8602 150.039 15.1522V19.077H148.842V15.4482C148.842 14.4772 148.392 13.9855 147.547 13.9855C147.341 13.9686 147.135 13.9969 146.941 14.0685C146.748 14.1402 146.572 14.2533 146.427 14.4001C146.282 14.5469 146.17 14.7238 146.1 14.9184C146.03 15.113 146.003 15.3206 146.022 15.5266V19.077H144.826L144.826 10.625Z" fill="white"/>
<path d="M157.009 17.4349C156.847 17.9905 156.495 18.4711 156.015 18.7926C155.535 19.1141 154.958 19.256 154.385 19.1936C153.985 19.2042 153.589 19.1274 153.222 18.9688C152.856 18.8101 152.528 18.5733 152.262 18.2748C151.995 17.9762 151.797 17.6231 151.681 17.24C151.564 16.8568 151.532 16.4528 151.586 16.0559C151.533 15.6578 151.566 15.2529 151.682 14.8686C151.799 14.4843 151.996 14.1296 152.261 13.8284C152.526 13.5273 152.852 13.2867 153.217 13.1231C153.583 12.9595 153.979 12.8766 154.379 12.88C156.065 12.88 157.082 14.0356 157.082 15.9445V16.3631H152.804V16.4303C152.785 16.6534 152.813 16.878 152.886 17.0896C152.959 17.3012 153.075 17.4952 153.227 17.6591C153.379 17.8231 153.563 17.9534 153.768 18.0417C153.973 18.13 154.194 18.1743 154.417 18.1718C154.703 18.2063 154.993 18.1546 155.25 18.0234C155.506 17.8921 155.718 17.6873 155.858 17.4349L157.009 17.4349ZM152.804 15.4758H155.864C155.879 15.2718 155.851 15.0669 155.783 14.8742C155.714 14.6815 155.606 14.5054 155.466 14.3571C155.325 14.2088 155.155 14.0916 154.967 14.0131C154.779 13.9345 154.576 13.8964 154.373 13.9011C154.166 13.8984 153.961 13.9374 153.769 14.0156C153.578 14.0939 153.404 14.2098 153.258 14.3565C153.111 14.5033 152.996 14.6779 152.918 14.8702C152.84 15.0624 152.801 15.2683 152.804 15.4758H152.804Z" fill="white"/>
</svg>
