<svg width="74" height="74" viewBox="0 0 74 74" fill="none" xmlns="http://www.w3.org/2000/svg">
<g clip-path="url(#clip0_3089_11615)">
<rect x="0.429688" y="0.196045" width="73.1391" height="73.804" rx="8.08837" fill="hsl(0, 100%, 25%)"/>
<path d="M15.5387 22.3567L28.514 16.2901C30.2981 15.4559 32.4393 16.2577 33.2722 18.0717L48.4167 51.0545C49.2496 52.8685 48.4714 55.0353 46.6873 55.8694L33.7121 61.936C31.928 62.7701 29.7868 61.9684 28.9538 60.1543L13.8094 27.1716C12.9764 25.3575 13.7546 23.1908 15.5387 22.3567Z" fill="#FFCF99" stroke="#CC6D00" stroke-width="1.01105"/>
<path d="M17.1266 22.9502L27.9393 17.8947C29.7234 17.0605 31.8646 17.8623 32.6976 19.6763L44.8131 46.0625C45.6461 47.8766 44.8679 50.0433 43.0838 50.8775L32.2711 55.9329C30.487 56.7671 28.3458 55.9653 27.5128 54.1513L15.3973 27.7651C14.5643 25.951 15.3425 23.7843 17.1266 22.9502Z" fill="#FF8800" stroke="#CC6D00" stroke-width="0.505523" stroke-linecap="round" stroke-linejoin="round"/>
<ellipse rx="1.19361" ry="1.14929" transform="matrix(0.905877 -0.423542 0.417277 0.908779 39.1507 56.1883)" fill="#FFAB4C" stroke="#CC6D00" stroke-width="0.505523"/>
<g clip-path="url(#clip1_3089_11615)">
<path d="M37.1246 27.3309C37.1246 27.3309 42.4196 22.826 50.8648 20.939C59.3101 19.052 65.9793 20.8837 65.9793 20.8837L71.7817 47.6386C71.7817 47.6386 62.484 46.7632 56.7436 48.0459C51.0031 49.3285 42.927 54.0858 42.927 54.0858L37.1246 27.3309Z" fill="#FFAB4C" stroke="#CC6D00" stroke-width="1.01105"/>
<path d="M53.3268 35.6073C54.0955 39.152 51.6194 41.9798 48.2132 42.7409C44.807 43.502 41.7607 41.9081 40.9919 38.3634C40.2232 34.8187 42.0231 30.6654 45.4293 29.9043C48.8355 29.1433 52.558 32.0626 53.3268 35.6073Z" fill="#FFCF99" stroke="#CC6D00" stroke-width="0.505523"/>
<path d="M56.9238 19.9543C57.9798 24.8234 63.4953 31.1847 68.1209 30.1511L66.1049 20.8557C66.1049 20.8557 63.728 20.4952 61.8037 20.3404C60.0994 20.2032 56.9238 19.9543 56.9238 19.9543Z" fill="#FFCF99" stroke="#CC6D00" stroke-width="0.505523"/>
<path d="M62.45 47.1399C61.394 42.2708 65.2209 39.1521 69.8465 38.1186L71.9051 47.6109L62.45 47.1399Z" fill="#FFCF99" stroke="#CC6D00" stroke-width="0.505523"/>
<path d="M36.8397 55.24C35.7838 50.371 30.4185 46.9289 25.793 47.9624L27.8089 57.2578L36.8397 55.24Z" fill="#FFCF99" stroke="#CC6D00" stroke-width="0.505523"/>
</g>
<g clip-path="url(#clip2_3089_11615)">
<path d="M32.4169 28.1322C32.4169 28.1322 36.8277 22.7502 44.8068 19.3744C52.786 15.9986 59.6791 16.5982 59.6791 16.5982L70.1598 41.854C70.1598 41.854 60.8491 42.6679 55.4255 44.9625C50.0018 47.2571 42.8976 53.388 42.8976 53.388L32.4169 28.1322Z" fill="#FFAB4C" stroke="#CC6D00" stroke-width="1.01105"/>
<path d="M49.8445 33.3501C51.2331 36.6963 49.299 39.922 46.0808 41.2835C42.8626 42.645 39.579 41.6268 38.1905 38.2807C36.8019 34.9346 37.8341 30.5277 41.0523 29.1662C44.2705 27.8046 48.456 30.004 49.8445 33.3501Z" fill="#FFCF99" stroke="#CC6D00" stroke-width="0.505523"/>
<path d="M50.5957 17.3157C52.5031 21.9119 59.0673 27.172 63.4376 25.323L59.7963 16.5484C59.7963 16.5484 57.3916 16.6221 55.4694 16.8164C53.7668 16.9885 50.5957 17.3157 50.5957 17.3157Z" fill="#FFCF99" stroke="#CC6D00" stroke-width="0.505523"/>
<path d="M60.882 43.0444C58.9747 38.4482 62.187 34.6933 66.5573 32.8443L70.2757 41.8048L60.882 43.0444Z" fill="#FFCF99" stroke="#CC6D00" stroke-width="0.505523"/>
<path d="M26.7063 30.5496C28.6136 35.1458 26.1854 41.0851 21.8151 42.934L18.1738 34.1594L26.7063 30.5496Z" fill="#FFCF99" stroke="#CC6D00" stroke-width="0.505523"/>
<path d="M37.1112 55.6188C35.2039 51.0226 29.3078 48.6051 24.9375 50.4541L28.5788 59.2287L37.1112 55.6188Z" fill="#FFCF99" stroke="#CC6D00" stroke-width="0.505523"/>
</g>
</g>
<defs>
<clipPath id="clip0_3089_11615">
<rect x="0.429688" y="0.196045" width="73.1391" height="73.804" rx="8.08837" fill="white"/>
</clipPath>
<clipPath id="clip1_3089_11615">
<rect width="30.3314" height="37.4087" fill="white" transform="matrix(0.974516 -0.217745 0.212253 0.9787 35.5977 20.29)"/>
</clipPath>
<clipPath id="clip2_3089_11615">
<rect width="30.3314" height="37.4087" fill="white" transform="matrix(0.920732 -0.38954 0.383387 0.923865 29.6602 21.4861)"/>
</clipPath>
</defs>
</svg>
