<svg width="150" height="41" viewBox="0 0 150 41" fill="none" xmlns="http://www.w3.org/2000/svg">
<path fill-rule="evenodd" clip-rule="evenodd" d="M145.917 17.4819L145.573 20.8671C145.257 23.2537 144.63 23.433 144.041 23.9164C143.456 24.4029 142.838 24.4058 142.231 24.4058C140.571 24.4058 139.738 23.2081 139.738 20.81C139.738 18.8501 140.069 17.3111 140.732 16.1904C141.395 15.0724 142.408 14.512 143.775 14.512C144.657 14.512 145.496 14.8305 146.296 15.4649C146.108 16.159 145.98 16.8305 145.917 17.4819ZM148.637 12.168H148.342C147.927 12.168 147.616 12.2105 147.41 12.2932C147.204 12.3785 147.055 12.5037 146.965 12.6715C146.879 12.8394 146.765 13.118 146.628 13.5078C146.213 13.118 145.696 12.7681 145.075 12.4609C144.453 12.1538 143.758 12 142.987 12C141.646 12 140.463 12.3785 139.439 13.1296C138.412 13.8833 137.614 14.9387 137.041 16.2956C136.47 17.6525 136.184 19.2029 136.184 20.9496C136.184 22.9579 136.647 24.4684 137.575 25.481C138.501 26.4937 139.654 27 141.034 27C142.599 27 144.241 26.9716 146.174 25.4127C146.174 25.4127 146.257 26.1667 146.786 26.4084C147.479 26.7269 148.339 26.5307 148.458 25.9448C148.709 24.6931 148.874 23.1797 148.874 23.1797C148.874 22.9407 149.181 20.1246 149.79 14.7338L149.999 12.8109C149.999 12.3813 149.546 12.168 148.637 12.168Z" fill="hsl(0, 100%, 25%)"/>
<path fill-rule="evenodd" clip-rule="evenodd" d="M41.6962 26.7228C40.6428 26.5379 39.8277 26.2606 39.2513 25.891C38.7409 25.5827 38.4863 25.213 38.4863 24.7817C38.4863 23.6314 38.5527 22.8611 38.6857 22.471C38.8189 22.0809 38.9961 21.8853 39.2179 21.8853C39.2845 21.8853 39.5391 21.9986 39.9831 22.2243C40.5817 22.6148 41.2357 22.9382 41.9455 23.1947C42.6551 23.4519 43.4867 23.5798 44.4405 23.5798C45.4827 23.5798 46.9641 23.3287 47.7407 22.8252C48.5165 22.322 48.9049 21.5878 48.9049 20.622C48.9049 19.9442 48.622 19.4 48.0566 18.9888C47.4912 18.5782 46.027 17.8303 44.8065 17.3398C44.6114 17.2613 44.2204 17.1056 44.0301 17.0152C41.639 15.8803 41.4856 15.5215 40.8351 14.7788C40.2076 14.0622 39.9235 12.9955 39.9235 11.5164C39.9235 9.9757 40.311 8.69718 41.0877 7.6802C41.8637 6.66344 42.6232 6.16998 43.5755 5.72411C44.8025 5.14987 46.2367 5 47.7671 5C48.7649 5 49.7131 5.10792 50.6111 5.32375C51.5095 5.53917 52.202 5.81178 52.6902 6.14013C53.0894 6.38665 53.289 6.67471 53.289 7.00306C53.289 7.35227 53.067 7.83008 52.6238 8.43563C52.1797 9.0418 51.803 9.34468 51.4928 9.34468C51.4037 9.34468 51.26 9.29834 51.0602 9.20587C50.8606 9.11361 50.6827 9.03659 50.528 8.97501C49.5743 8.60512 48.6095 8.42018 47.6339 8.42018C46.3475 8.42018 45.3939 8.6667 44.7731 9.15995C44.1521 9.65278 43.8419 10.269 43.8419 11.0085C43.8419 11.7479 44.1187 12.3182 44.6735 12.7185C45.2275 13.1193 46.0815 13.5458 47.2347 13.9973L48.0331 14.3362C49.5185 14.9322 50.6887 15.6148 51.5425 16.3852C52.3961 17.1557 52.8234 18.2601 52.8234 19.6975C52.8234 21.4029 52.435 22.7998 51.659 23.8881C50.8823 24.9771 49.8795 25.7676 48.6484 26.2606C47.4178 26.7537 46.0705 27 44.6069 27C43.7197 27 42.7492 26.9075 41.6962 26.7228Z" fill="hsl(0, 100%, 25%)"/>
<path fill-rule="evenodd" clip-rule="evenodd" d="M63.0221 17.4817L62.6786 20.8669C62.3621 23.2535 61.7348 23.4328 61.1466 23.9164C60.5612 24.4027 59.9431 24.4058 59.3368 24.4058C57.6762 24.4058 56.843 23.2081 56.843 20.81C56.843 18.8499 57.1746 17.3111 57.8374 16.1902C58.5005 15.0722 59.513 14.5118 60.8807 14.5118C61.7618 14.5118 62.601 14.8305 63.4014 15.4649C63.2131 16.159 63.0849 16.8303 63.0221 17.4817ZM65.7427 12.1678H65.4471C65.0321 12.1678 64.7215 12.2105 64.5154 12.293C64.3093 12.3783 64.1599 12.5035 64.0704 12.6715C63.9838 12.8392 63.8702 13.118 63.733 13.5076C63.3178 13.118 62.8011 12.7681 62.18 12.4609C61.5586 12.1536 60.8629 12 60.0924 12C58.7515 12 57.5688 12.3783 56.5443 13.1294C55.5171 13.8833 54.7195 14.9385 54.1462 16.2954C53.5757 17.6525 53.289 19.2029 53.289 20.9494C53.289 22.9577 53.752 24.4682 54.6807 25.4808C55.6065 26.4935 56.7594 27 58.1393 27C59.7042 27 61.3466 26.9716 63.2789 25.4127C63.2789 25.4127 63.3625 26.1665 63.8913 26.4084C64.5841 26.7269 65.4441 26.5305 65.5636 25.9446C65.8144 24.6931 65.9789 23.1795 65.9789 23.1795C65.9789 22.9407 66.2862 20.1243 66.8956 14.7336L67.1047 12.8109C67.1047 12.3813 66.6506 12.1678 65.7427 12.1678Z" fill="hsl(0, 100%, 25%)"/>
<path fill-rule="evenodd" clip-rule="evenodd" d="M69.5511 26.7832C69.3265 26.6386 69.2145 26.4411 69.2145 26.1907L70.3186 15.0375H68.7109C68.2978 15.0375 68.0916 14.7198 68.0916 14.0836V13.9678C68.1273 12.7349 68.4324 12.1178 69.007 12.1178H70.6416L70.8571 9.3942C70.9647 7.91021 71.3997 6.80693 72.1628 6.08416C72.9257 5.36139 74.4686 5 75.6176 5C77.1792 5 77.96 5.39542 77.96 6.18522C77.96 6.45542 77.8612 6.84076 77.6637 7.34165C77.466 7.84318 77.269 8.09321 77.0715 8.09321C77.0178 8.09321 76.91 8.06443 76.7485 8.00644C76.5868 7.94887 76.3624 7.91966 76.0753 7.91966C75.6801 7.91966 74.9657 7.72615 74.5996 8.26697C74.4291 8.51889 74.2766 8.8933 74.2227 9.45198L73.9805 12.1178H77.3327C77.4945 12.1178 77.6065 12.1611 77.6696 12.2477C77.7323 12.3347 77.7636 12.4843 77.7636 12.6961V12.8694C77.7636 13.3131 77.6198 13.7848 77.3327 14.2859C77.0454 14.7875 76.7044 15.0375 76.3097 15.0375H73.6842L72.5803 26.1907C72.5264 26.7304 72.0324 27 71.0993 27H70.5608C70.112 27 69.7755 26.9277 69.5511 26.7832Z" fill="hsl(0, 100%, 25%)"/>
<path fill-rule="evenodd" clip-rule="evenodd" d="M82.2557 18.5364C83.3738 18.5364 84.338 18.3506 85.1485 17.9779C85.9589 17.6054 86.3642 17.056 86.3642 16.3299C86.3642 15.8645 86.1826 15.4916 85.8192 15.2125C85.4561 14.9329 84.976 14.7935 84.3799 14.7935C82.4047 14.7935 81.1747 16.0414 80.6905 18.5364H82.2557ZM87.8736 19.7792C86.5878 20.6081 85.0411 21.0223 83.234 21.0223C82.2837 21.0223 81.3797 20.9575 80.5228 20.8272C80.5413 22.0936 80.8393 22.9734 81.4172 23.4668C81.9945 23.9601 82.8145 24.2067 83.8768 24.2067C84.6035 24.2067 85.2556 24.1091 85.8333 23.9138C86.4106 23.7181 87.0163 23.4714 87.6499 23.1732C87.9296 23.0057 88.1157 22.9219 88.2092 22.9219C88.2832 22.9219 88.3348 22.9406 88.3626 22.9777C88.3907 23.0155 88.4046 23.1176 88.4046 23.2851C88.4046 23.4528 88.3858 23.7459 88.3489 24.1649C88.3111 24.5837 88.2647 24.896 88.2092 25.1008C88.0413 25.7527 87.4495 26.2322 86.4342 26.5394C85.4184 26.8467 84.4263 27 83.4575 27C81.4264 27 79.838 26.5071 78.6923 25.5198C77.5461 24.533 76.9732 23.0246 76.9732 20.9947C76.9732 18.0896 77.6624 15.8645 79.0414 14.3186C80.4204 12.7731 82.293 12 84.6595 12C85.9451 12 86.9696 12.2144 87.7339 12.6427C88.4975 13.0711 89.0335 13.5782 89.3411 14.1651C89.6483 14.7514 89.8021 15.3339 89.8021 15.9108C89.8021 17.6614 89.1593 18.951 87.8736 19.7792Z" fill="hsl(0, 100%, 25%)"/>
<path fill-rule="evenodd" clip-rule="evenodd" d="M116.738 22.6706C117.387 21.6466 117.712 20.1755 117.712 18.2571C117.712 17.084 117.487 16.2137 117.039 15.6453C116.589 15.0775 115.906 14.7935 114.989 14.7935C113.785 14.7935 112.853 15.315 112.194 16.3575C111.535 17.4009 111.206 18.8716 111.206 20.7712C111.206 23.0616 112.123 24.2067 113.957 24.2067C115.161 24.2067 116.088 23.695 116.738 22.6706ZM109.128 25.4498C108.085 24.4163 107.565 22.9127 107.565 20.9386C107.565 18.3689 108.186 16.2369 109.428 14.5419C110.67 12.8476 112.639 12 115.333 12C117.301 12 118.801 12.5215 119.833 13.5644C120.865 14.6075 121.381 16.1252 121.381 18.1176C121.381 20.9484 120.697 23.1363 119.332 24.6816C117.965 26.2275 116.088 27 113.7 27C111.693 27 110.169 26.4833 109.128 25.4498Z" fill="hsl(0, 100%, 25%)"/>
<path fill-rule="evenodd" clip-rule="evenodd" d="M130.864 15.2183C130.228 14.6591 129.474 14.3791 128.602 14.3791C127.349 14.3791 126.413 14.929 125.796 16.0289C125.178 17.1288 124.869 18.6249 124.869 20.5159C124.869 21.7317 125.078 22.6195 125.496 23.1792C125.913 23.739 126.549 24.0184 127.403 24.0184C127.93 24.0184 128.452 23.7773 128.97 23.2949C129.488 22.8127 129.928 22.0984 130.292 21.1527L130.864 15.2183ZM133.235 25.4652C132.887 26.6085 132.337 26.5498 131.685 26.5188C131.199 26.4955 130.965 26.1572 130.842 25.2874C129.822 26.1252 129.206 26.3773 128.451 26.6495C127.478 27.0008 127.049 27 126.231 27C125.36 27 124.556 26.7785 123.82 26.3343C123.084 25.8904 122.494 25.2008 122.049 24.2645C121.603 23.329 121.381 22.1565 121.381 20.7473C121.381 18.9337 121.653 17.3222 122.199 15.9134C122.744 14.5047 123.511 13.4092 124.501 12.6278C125.491 11.846 126.622 11.4551 127.894 11.4551C129.129 11.4551 130.201 11.8603 131.109 12.6709L131.818 5.81062C131.872 5.27056 132.372 5 133.317 5H133.834C134.306 5 134.652 5.07237 134.87 5.21712C135.088 5.36166 135.197 5.55016 135.197 5.78138C135.015 7.5379 134.688 10.804 134.216 15.5804C133.743 20.3568 133.507 22.851 133.507 23.0634L133.235 25.4652Z" fill="hsl(0, 100%, 25%)"/>
<path fill-rule="evenodd" clip-rule="evenodd" d="M103.19 20.8623C103.19 20.8825 103.188 20.9054 103.185 20.9282C103.072 21.8318 102.713 22.5688 102.111 23.1367C101.373 23.8394 100.375 24.1893 99.1225 24.1893H95.1277L95.7934 17.564L95.8104 17.3891H99.2601C100.555 17.3891 101.544 17.6387 102.213 18.1376C102.887 18.6338 103.224 19.3451 103.224 20.2715C103.224 20.4752 103.213 20.6731 103.19 20.8623ZM96.8162 8.8221H99.822C102.145 8.8221 103.308 9.69989 103.308 11.455C103.308 12.4762 102.932 13.3422 102.179 14.0535C101.429 14.7648 100.44 15.1204 99.2097 15.1204H96.2036L96.8162 8.8221ZM105.727 18.023C105.396 17.5182 105 17.1023 104.545 16.781C104.528 16.7667 104.508 16.7524 104.491 16.7409C104.199 16.5373 103.909 16.3681 103.631 16.2419C103.39 16.1271 103.154 16.0439 102.923 15.9894L102.952 15.8691C102.974 15.8605 102.994 15.8519 103.016 15.8433C103.109 15.8088 103.204 15.7686 103.294 15.7257C104.129 15.3441 104.851 14.7476 105.457 13.9274C105.48 13.8958 105.505 13.8643 105.528 13.8298C106.23 12.849 106.578 11.7907 106.578 10.6492C106.578 9.1894 106.067 8.05075 105.039 7.23037C104.013 6.41019 102.463 6 100.389 6H94.8329C94.448 6 94.1642 6.09172 93.9816 6.26965C93.7991 6.45043 93.6978 6.73132 93.681 7.11005L91.7792 25.979C91.7594 26.3375 91.8268 26.5984 91.9815 26.7592C92.1329 26.9197 92.383 27 92.7286 27H98.4596C99.9569 27 101.26 26.7963 102.37 26.3863C103.106 26.1167 103.755 25.7553 104.32 25.3049C104.398 25.2418 104.471 25.1789 104.545 25.1127C105.806 23.9943 106.435 22.4227 106.435 20.4006C106.435 19.6004 106.249 18.8834 105.873 18.2553C105.825 18.175 105.778 18.0976 105.727 18.023Z" fill="hsl(0, 100%, 25%)"/>
<path fill-rule="evenodd" clip-rule="evenodd" d="M31.4911 4.39105C31.3401 3.98797 31.0099 3.67951 30.5989 3.55742C30.0289 3.38793 16.5426 -0.558315 8.52588 2.47817C6.05672 3.41326 4.09787 5.25907 3.0098 7.67537C1.92166 10.0918 1.82686 12.7925 2.76505 15.2714C4.80211 20.6544 10.7444 22.9441 15.4913 21.0622C18.4198 19.9013 21.1718 17.7481 23.6081 15.32C23.69 15.2384 23.6877 15.1015 23.6007 15.0255C22.9568 14.4622 22.1998 14.0462 21.3867 13.8031C21.3177 13.7825 21.2429 13.8019 21.191 13.852C19.1162 15.8564 16.8149 17.6198 14.527 18.4891C11.0124 19.8246 6.74121 18.1914 5.32487 14.302C3.97112 10.5841 5.80474 6.44718 9.49016 5.0513C15.0414 2.94879 24.1364 4.7726 27.9983 5.7146C27.313 6.69641 26.3256 8.05083 25.1289 9.5225C25.0499 9.61953 25.0771 9.76348 25.1856 9.82543C25.8523 10.2059 26.481 10.6557 27.06 11.17C27.1456 11.2459 27.2769 11.236 27.349 11.147C29.6988 8.2478 31.229 5.83101 31.3681 5.60927C31.5966 5.24502 31.6422 4.79391 31.4911 4.39105ZM0.0880269 27.2517C0.239432 27.6548 0.570397 27.9632 0.982171 28.0854C1.5537 28.2548 15.0714 32.2011 23.1069 29.1646C25.5819 28.2295 27.5453 26.3837 28.6358 23.9674C29.7266 21.5511 29.8216 18.8503 28.8812 16.3715C26.8394 10.9884 20.8832 8.69864 16.1252 10.5806C13.1899 11.7414 10.4314 13.8947 7.9895 16.3227C7.90738 16.4044 7.90959 16.5412 7.99682 16.6174C8.64233 17.1806 9.40107 17.5966 10.2161 17.8397C10.2851 17.8604 10.3602 17.8408 10.4122 17.7907C12.4918 15.7862 14.7985 14.0229 17.0918 13.1536C20.6146 11.8181 24.8958 13.4514 26.3154 17.3408C27.6723 21.0587 25.8344 25.1956 22.1404 26.5914C16.5762 28.694 7.45993 26.8702 3.58904 25.9282C4.27595 24.9463 5.2656 23.5919 6.46511 22.1203C6.54426 22.0232 6.51707 21.8793 6.40831 21.8173C5.74003 21.4368 5.10992 20.987 4.52949 20.4729C4.44364 20.3969 4.31211 20.4069 4.23986 20.4959C1.88453 23.395 0.350742 25.8117 0.211345 26.0335C-0.0176941 26.3977 -0.0633778 26.8488 0.0880269 27.2517Z" fill="hsl(0, 100%, 25%)"/>
<mask id="mask0_3149_7002" style="mask-type:alpha" maskUnits="userSpaceOnUse" x="0" y="1" width="32" height="30">
<path fill-rule="evenodd" clip-rule="evenodd" d="M31.4911 4.39105C31.3401 3.98797 31.0099 3.67951 30.5989 3.55742C30.0289 3.38793 16.5426 -0.558315 8.52588 2.47817C6.05672 3.41326 4.09787 5.25907 3.0098 7.67537C1.92166 10.0918 1.82686 12.7925 2.76505 15.2714C4.80211 20.6544 10.7444 22.9441 15.4913 21.0622C18.4198 19.9013 21.1718 17.7481 23.6081 15.32C23.69 15.2384 23.6877 15.1015 23.6007 15.0255C22.9568 14.4622 22.1998 14.0462 21.3867 13.8031C21.3177 13.7825 21.2429 13.8019 21.191 13.852C19.1162 15.8564 16.8149 17.6198 14.527 18.4891C11.0124 19.8246 6.74121 18.1914 5.32487 14.302C3.97112 10.5841 5.80474 6.44718 9.49016 5.0513C15.0414 2.94879 24.1364 4.7726 27.9983 5.7146C27.313 6.69641 26.3256 8.05083 25.1289 9.5225C25.0499 9.61953 25.0771 9.76348 25.1856 9.82543C25.8523 10.2059 26.481 10.6557 27.06 11.17C27.1456 11.2459 27.2769 11.236 27.349 11.147C29.6988 8.2478 31.229 5.83101 31.3681 5.60927C31.5966 5.24502 31.6422 4.79391 31.4911 4.39105ZM0.0880269 27.2517C0.239432 27.6548 0.570397 27.9632 0.982171 28.0854C1.5537 28.2548 15.0714 32.2011 23.1069 29.1646C25.5819 28.2295 27.5453 26.3837 28.6358 23.9674C29.7266 21.5511 29.8216 18.8503 28.8812 16.3715C26.8394 10.9884 20.8832 8.69864 16.1252 10.5806C13.1899 11.7414 10.4314 13.8947 7.9895 16.3227C7.90738 16.4044 7.90959 16.5412 7.99682 16.6174C8.64233 17.1806 9.40107 17.5966 10.2161 17.8397C10.2851 17.8604 10.3602 17.8408 10.4122 17.7907C12.4918 15.7862 14.7985 14.0229 17.0918 13.1536C20.6146 11.8181 24.8958 13.4514 26.3154 17.3408C27.6723 21.0587 25.8344 25.1956 22.1404 26.5914C16.5762 28.694 7.45993 26.8702 3.58904 25.9282C4.27595 24.9463 5.2656 23.5919 6.46511 22.1203C6.54426 22.0232 6.51707 21.8793 6.40831 21.8173C5.74003 21.4368 5.10992 20.987 4.52949 20.4729C4.44364 20.3969 4.31211 20.4069 4.23986 20.4959C1.88453 23.395 0.350742 25.8117 0.211345 26.0335C-0.0176941 26.3977 -0.0633778 26.8488 0.0880269 27.2517Z" fill="hsl(0, 100%, 25%)"/>
</mask>
<g mask="url(#mask0_3149_7002)">
</g>
</svg>
