<svg width="193" height="55" viewBox="0 0 193 55" fill="none" xmlns="http://www.w3.org/2000/svg">
<path d="M185.582 54.3657H7.27488C3.35211 54.3657 0.142578 51.3433 0.142578 47.6493V7.3508C0.142578 3.65676 3.35211 0.634377 7.27488 0.634377H185.582C189.505 0.634377 192.715 3.65676 192.715 7.3508V47.6493C192.715 51.3433 189.505 54.3657 185.582 54.3657Z" fill="black"/>
<path d="M185.582 0.634377H7.27488C3.35211 0.634377 0.142578 3.65676 0.142578 7.3508V47.6493C0.142578 51.3433 3.35211 54.3657 7.27488 54.3657H185.582C189.505 54.3657 192.715 51.3433 192.715 47.6493V7.3508C192.715 3.65676 189.505 0.634377 185.582 0.634377ZM185.582 1.709C188.886 1.709 191.573 4.24029 191.573 7.3508V47.6493C191.573 50.7603 188.886 53.2916 185.582 53.2916H7.27488C3.97177 53.2916 1.28375 50.7603 1.28375 47.6493V7.3508C1.28375 4.24029 3.97177 1.709 7.27488 1.709H185.582Z" fill="#A6A6A6"/>
<path d="M69.5384 14.3939C69.5384 15.5193 69.2062 16.4156 68.5407 17.0841C67.7848 17.8791 66.7997 18.2768 65.5886 18.2768C64.4288 18.2768 63.4427 17.8739 62.6318 17.0668C61.8194 16.2603 61.414 15.2602 61.414 14.067C61.414 12.8732 61.8194 11.8737 62.6318 11.0666C63.4427 10.2601 64.4288 9.8566 65.5886 9.8566C66.1641 9.8566 66.715 9.96943 67.2381 10.1946C67.7613 10.4202 68.1808 10.7198 68.4948 11.095L67.7884 11.8038C67.2565 11.1663 66.5241 10.8478 65.5886 10.8478C64.7427 10.8478 64.0113 11.1459 63.3941 11.7424C62.7767 12.3397 62.4681 13.1141 62.4681 14.067C62.4681 15.0199 62.7767 15.7943 63.3941 16.3915C64.0113 16.9881 64.7427 17.2862 65.5886 17.2862C66.4859 17.2862 67.234 16.9865 67.8329 16.3863C68.2217 15.9953 68.4465 15.4518 68.5067 14.7538H65.5886V13.7857H69.4825C69.5201 13.9962 69.5384 14.1982 69.5384 14.3939Z" fill="white"/>
<path d="M69.5376 14.3944H69.4037C69.4026 15.4941 69.0824 16.3483 68.4452 16.9896L68.4437 16.9907L68.4432 16.9918C67.7113 17.7593 66.7706 18.1413 65.5877 18.1429C64.4589 18.1413 63.514 17.7551 62.7251 16.9723C61.9379 16.1878 61.5486 15.2302 61.5471 14.0674C61.5486 12.9041 61.9379 11.9471 62.7251 11.1631C63.514 10.3797 64.4589 9.99298 65.5877 9.99137C66.1459 9.99137 66.6775 10.1006 67.1844 10.3183C67.6918 10.5377 68.0927 10.8251 68.3913 11.1821L68.4939 11.0954L68.3992 11.0004L67.6929 11.7098L67.7876 11.8043L67.8907 11.7183C67.334 11.0492 66.5525 10.7119 65.5877 10.7139C64.7105 10.7128 63.9389 11.0272 63.3006 11.6464C62.6561 12.2677 62.3323 13.0856 62.3334 14.0674C62.3323 15.0492 62.6561 15.8672 63.3006 16.4884C63.9389 17.1077 64.7105 17.422 65.5877 17.4209C66.5148 17.4225 67.3048 17.1071 67.9268 16.4817C68.3422 16.0639 68.5776 15.4853 68.6394 14.7658L68.6518 14.6199H65.7217V13.9205H69.4816V13.7861L69.3497 13.8098C69.3864 14.0134 69.4037 14.207 69.4037 14.3944H69.5376H69.6715C69.6715 14.1902 69.6526 13.9804 69.6134 13.7621L69.5936 13.6518H65.4538V14.7542V14.8886H68.5058V14.7542L68.3725 14.7427C68.3134 15.4186 68.0988 15.9276 67.7374 16.2918C67.1619 16.8668 66.4557 17.1507 65.5877 17.1523C64.7732 17.1512 64.0822 16.8699 63.4863 16.2954C62.8962 15.7229 62.6027 14.992 62.6012 14.0674C62.6027 13.1428 62.8962 12.412 63.4863 11.8395C64.0822 11.2649 64.7732 10.9837 65.5877 10.9826C66.4933 10.9847 67.1772 11.2848 67.6851 11.8909L67.7793 12.0032L68.5886 11.1904L68.6754 11.1033L68.5964 11.0093C68.2673 10.6159 67.829 10.3035 67.2901 10.0717C66.7502 9.83917 66.1805 9.72271 65.5877 9.72271C64.3971 9.72164 63.3697 10.1414 62.5363 10.9721C61.6998 11.8012 61.2782 12.8433 61.2792 14.0674C61.2782 15.291 61.6998 16.3337 62.5368 17.1633C63.3697 17.9934 64.3971 18.4127 65.5877 18.4116C66.8276 18.4127 67.8562 17.9996 68.6367 17.1774L68.5399 17.0846L68.6345 17.1795C69.3283 16.4843 69.6725 15.545 69.6715 14.3944H69.5376Z" fill="white"/>
<path d="M75.7105 11.0276H72.0511V13.583H75.3512V14.5516H72.0511V17.107H75.7105V18.0972H71.0195V10.0374H75.7105V11.0276Z" fill="white"/>
<path d="M75.7116 11.0275V10.8932H71.9183V13.7173H75.2183V14.4168L71.9183 14.4172V17.2413H75.5777V17.9628H71.1545V10.1717H75.5777V11.0275H75.7116V10.8932V11.0275H75.8455V10.0374V9.90307H70.8867V18.2314H75.8455V17.107V16.9726H72.1861V14.6858H75.4862V13.583V13.4487H72.1861V11.1619H75.8455V11.0275H75.7116Z" fill="white"/>
<path d="M80.0646 18.0972H79.0314V11.0276H76.787V10.0374H82.3089V11.0276H80.0646V18.0972Z" fill="white"/>
<path d="M80.0657 18.0971V17.9628H79.1664V10.8932H76.9221V10.1717H82.1761V10.8932H79.9318V18.0971H80.0657V17.9628V18.0971H80.1996V11.1619H82.444V10.0374V9.90307H76.6542V11.0275V11.1619H78.8986V18.2314H80.0657H80.1996V18.0971H80.0657Z" fill="white"/>
<path d="M86.3046 18.0972V10.0374H87.3368V18.0972H86.3046Z" fill="white"/>
<path d="M86.3038 18.0971H86.4377V10.1717H87.202V17.9628H86.3038V18.0971H86.4377H86.3038V18.2314H87.3359H87.4699V9.90307H86.3038H86.1699V18.2314H86.3038V18.0971Z" fill="white"/>
<path d="M91.916 18.0972H90.8828V11.0276H88.6386V10.0374H94.1604V11.0276H91.916V18.0972Z" fill="white"/>
<path d="M91.9171 18.0971V17.9628H91.0178V10.8932H88.7736V10.1717H94.0275V10.8932H91.7832V18.0971H91.9171V17.9628V18.0971H92.0511V11.1619H94.2954V10.0374V9.90307H88.5058V11.0275V11.1619H90.75V18.2314H91.9171H92.0511V18.0971H91.9171Z" fill="white"/>
<path d="M99.4851 16.3805C100.08 16.9845 100.808 17.2862 101.668 17.2862C102.529 17.2862 103.257 16.9845 103.851 16.3805C104.446 15.7766 104.744 15.0046 104.744 14.067C104.744 13.1294 104.446 12.3574 103.851 11.7535C103.257 11.1495 102.529 10.8478 101.668 10.8478C100.808 10.8478 100.08 11.1495 99.4851 11.7535C98.8912 12.3574 98.5931 13.1294 98.5931 14.067C98.5931 15.0046 98.8912 15.7766 99.4851 16.3805ZM104.615 17.0553C103.824 17.8701 102.842 18.2768 101.668 18.2768C100.493 18.2768 99.5112 17.8701 98.7229 17.0553C97.9323 16.2414 97.539 15.245 97.539 14.067C97.539 12.8889 97.9323 11.8925 98.7229 11.0787C99.5112 10.2637 100.493 9.8566 101.668 9.8566C102.836 9.8566 103.816 10.2659 104.609 11.084C105.402 11.902 105.798 12.8963 105.798 14.067C105.798 15.245 105.403 16.2414 104.615 17.0553Z" fill="white"/>
<path d="M99.4842 16.381L99.389 16.4754C100.006 17.1035 100.775 17.4225 101.667 17.4209C102.559 17.4225 103.329 17.1035 103.945 16.4754C104.566 15.8467 104.878 15.0334 104.877 14.0674C104.878 13.1015 104.566 12.2881 103.945 11.6595C103.329 11.0313 102.559 10.7123 101.667 10.7139C100.775 10.7123 100.006 11.0313 99.389 11.6595C98.7696 12.2881 98.4567 13.1015 98.4584 14.0674C98.4567 15.0334 98.7696 15.8467 99.389 16.4754L99.4842 16.381L99.5794 16.2865C99.0113 15.7066 98.7273 14.9772 98.7262 14.0674C98.7273 13.1576 99.0113 12.4282 99.5794 11.8483C100.153 11.2686 100.838 10.9842 101.667 10.9826C102.496 10.9842 103.183 11.2686 103.755 11.8483C104.324 12.4282 104.608 13.1576 104.609 14.0674C104.608 14.9772 104.324 15.7066 103.755 16.2865C103.183 16.8663 102.496 17.1507 101.667 17.1523C100.838 17.1507 100.153 16.8663 99.5794 16.2865L99.4842 16.381ZM104.614 17.0557L104.518 16.9623C103.75 17.7515 102.811 18.1413 101.667 18.1429C100.523 18.1413 99.5841 17.7515 98.8177 16.9623L98.8141 16.9582L98.8177 16.9623C98.0514 16.1705 97.6732 15.2155 97.6721 14.0674C97.6732 12.9193 98.0514 11.9644 98.8177 11.1725C99.5841 10.3833 100.523 9.99298 101.667 9.99136C102.804 9.99298 103.74 10.3849 104.513 11.1783C105.282 11.9738 105.662 12.9272 105.664 14.0674C105.662 15.2155 105.283 16.1705 104.518 16.9623L104.614 17.0557L104.71 17.1491C105.522 16.3127 105.932 15.2753 105.932 14.0674C105.932 12.8664 105.52 11.8311 104.705 10.991C103.889 10.1477 102.866 9.72123 101.667 9.72271C100.462 9.72123 99.4367 10.1457 98.6258 10.9858V10.9853C97.8123 11.8221 97.4032 12.8595 97.4042 14.0674C97.4032 15.2753 97.8123 16.3127 98.6258 17.1496L98.6294 17.1533L98.6258 17.1491C99.4367 17.9891 100.462 18.4127 101.667 18.4116C102.872 18.4127 103.897 17.9891 104.71 17.1491L104.614 17.0557Z" fill="white"/>
<path d="M107.246 18.0972V10.0374H108.503L112.408 16.3074H112.452L112.408 14.7541V10.0374H113.441V18.0972H112.363L108.278 11.5234H108.233L108.278 13.0772V18.0972H107.246Z" fill="white"/>
<path d="M107.247 18.0971H107.381V10.1717H108.429L112.335 16.4416H112.453H112.591L112.543 14.7521V10.1717H113.308V17.9628H112.439L108.353 11.389H108.234H108.097L108.145 13.0793V17.9628H107.247V18.0971H107.381H107.247V18.2314H108.279H108.413V13.075L108.368 11.5197L108.234 11.5233V11.6577H108.279V11.5233L108.165 11.5948L112.29 18.2314H113.442H113.576V9.90307H112.409H112.275V14.7557L112.32 16.3109L112.453 16.3073V16.173H112.409V16.3073L112.523 16.236L108.578 9.90307H107.247H107.113V18.2314H107.247V18.0971Z" fill="white"/>
<path d="M149.247 40.9327H151.746V24.14H149.247V40.9327ZM171.756 30.1891L168.891 37.4696H168.805L165.832 30.1891H163.14L167.599 40.3649L165.057 46.0251H167.664L174.535 30.1891H171.756ZM157.584 39.0254C156.764 39.0254 155.623 38.615 155.623 37.5992C155.623 36.3031 157.045 35.8062 158.272 35.8062C159.372 35.8062 159.887 36.0438 160.556 36.3682C160.361 37.9235 159.026 39.0254 157.584 39.0254ZM157.885 29.8217C156.076 29.8217 154.202 30.6214 153.427 32.3929L155.645 33.3217C156.119 32.3929 157.001 32.0901 157.928 32.0901C159.22 32.0901 160.534 32.8683 160.556 34.2509V34.4235C160.103 34.1643 159.135 33.7755 157.949 33.7755C155.559 33.7755 153.124 35.093 153.124 37.5561C153.124 39.803 155.085 41.2507 157.281 41.2507C158.962 41.2507 159.887 40.4945 160.47 39.6089H160.556V40.9049H162.968V34.4665C162.968 31.4857 160.75 29.8217 157.885 29.8217ZM142.441 32.2333H138.887V26.4772H142.441C144.309 26.4772 145.37 28.0287 145.37 29.3552C145.37 30.6566 144.309 32.2333 142.441 32.2333ZM142.377 24.14H136.389V40.9327H138.887V34.5705H142.377C145.146 34.5705 147.869 32.5592 147.869 29.3552C147.869 26.1513 145.146 24.14 142.377 24.14ZM109.724 39.0285C107.998 39.0285 106.552 37.5787 106.552 35.5874C106.552 33.5751 107.998 32.1033 109.724 32.1033C111.429 32.1033 112.766 33.5751 112.766 35.5874C112.766 37.5787 111.429 39.0285 109.724 39.0285ZM112.594 31.1294H112.507C111.947 30.4587 110.867 29.8528 109.508 29.8528C106.66 29.8528 104.05 32.3629 104.05 35.5874C104.05 38.7903 106.66 41.279 109.508 41.279C110.867 41.279 111.947 40.6729 112.507 39.9808H112.594V40.8031C112.594 42.9891 111.429 44.1577 109.552 44.1577C108.02 44.1577 107.07 43.0536 106.682 42.1232L104.503 43.0321C105.129 44.5469 106.79 46.4082 109.552 46.4082C112.486 46.4082 114.967 44.6766 114.967 40.4568V30.1991H112.594V31.1294ZM116.693 40.9327H119.196V24.1395H116.693V40.9327ZM122.886 35.3927C122.821 33.1852 124.59 32.0602 125.863 32.0602C126.856 32.0602 127.697 32.5576 127.977 33.2724L122.886 35.3927ZM130.653 33.4885C130.179 32.2113 128.732 29.8528 125.776 29.8528C122.842 29.8528 120.404 32.1683 120.404 35.5659C120.404 38.7688 122.821 41.279 126.057 41.279C128.668 41.279 130.179 39.6775 130.804 38.7472L128.862 37.4485C128.215 38.4009 127.33 39.0285 126.057 39.0285C124.784 39.0285 123.878 38.444 123.295 37.2974L130.911 34.1376L130.653 33.4885ZM69.9737 31.6057V34.0294H75.7559C75.5832 35.3927 75.1302 36.3881 74.4397 37.0807C73.5985 37.925 72.2823 38.8553 69.9737 38.8553C66.4135 38.8553 63.6304 35.9772 63.6304 32.4065C63.6304 28.8358 66.4135 25.9572 69.9737 25.9572C71.894 25.9572 73.2961 26.7148 74.3319 27.6887L76.0363 25.9793C74.5909 24.5939 72.6704 23.5335 69.9737 23.5335C65.0973 23.5335 60.998 27.5156 60.998 32.4065C60.998 37.2974 65.0973 41.279 69.9737 41.279C72.6061 41.279 74.5909 40.4138 76.1441 38.7903C77.7408 37.1888 78.2372 34.9383 78.2372 33.1207C78.2372 32.5576 78.1943 32.0387 78.1075 31.6057H69.9737ZM84.8111 39.0285C83.0847 39.0285 81.5958 37.6001 81.5958 35.5659C81.5958 33.51 83.0847 32.1033 84.8111 32.1033C86.5369 32.1033 88.0257 33.51 88.0257 35.5659C88.0257 37.6001 86.5369 39.0285 84.8111 39.0285ZM84.8111 29.8528C81.6606 29.8528 79.093 32.2548 79.093 35.5659C79.093 38.8553 81.6606 41.279 84.8111 41.279C87.9609 41.279 90.5285 38.8553 90.5285 35.5659C90.5285 32.2548 87.9609 29.8528 84.8111 29.8528ZM97.2838 39.0285C95.5581 39.0285 94.0691 37.6001 94.0691 35.5659C94.0691 33.51 95.5581 32.1033 97.2838 32.1033C99.0097 32.1033 100.499 33.51 100.499 35.5659C100.499 37.6001 99.0097 39.0285 97.2838 39.0285ZM97.2838 29.8528C94.1335 29.8528 91.5664 32.2548 91.5664 35.5659C91.5664 38.8553 94.1335 41.279 97.2838 41.279C100.434 41.279 103.001 38.8553 103.001 35.5659C103.001 32.2548 100.434 29.8528 97.2838 29.8528Z" fill="white"/>
<path d="M20.1079 44.1426L20.0084 44.0471C19.6187 43.6335 19.3886 42.9912 19.3886 42.1596V42.3553V12.6473C19.3886 12.6446 19.3886 12.6426 19.3886 12.6404C19.3886 12.643 19.3886 12.6451 19.3886 12.6478V12.844C19.3886 11.9435 19.6569 11.2652 20.1063 10.8584L36.6994 27.501L20.1079 44.1426ZM19.3886 12.6388C19.3886 12.5648 19.3906 12.4929 19.3944 12.4221C19.3906 12.4924 19.3886 12.5648 19.3886 12.6388ZM19.3944 12.4189C19.3944 12.418 19.3944 12.4169 19.3948 12.4158C19.3944 12.4169 19.3944 12.418 19.3944 12.4189ZM19.3948 12.4095C19.3948 12.409 19.3948 12.4084 19.3948 12.4079C19.3948 12.4084 19.3948 12.409 19.3948 12.4095Z" fill="url(#paint0_linear_4435_13243)"/>
<path d="M42.2293 33.2471L42.3555 33.1752L48.9083 29.4407C49.5331 29.0845 49.9495 28.6526 50.1572 28.1956C49.95 28.6526 49.5335 29.085 48.9083 29.4413L42.3555 33.1757L42.2293 33.2471ZM42.2309 33.0503L36.6992 27.5009L42.2304 21.9525L48.9083 25.7577C49.7563 26.241 50.2324 26.8639 50.312 27.5004C50.312 27.5009 50.312 27.502 50.312 27.5029C50.2324 28.1379 49.7563 28.7613 48.9083 29.2445L42.2309 33.0503Z" fill="url(#paint1_linear_4435_13243)"/>
<path d="M21.2914 44.7764C20.8279 44.7764 20.4234 44.6252 20.108 44.3398L20.1086 44.3392C20.424 44.6247 20.829 44.7764 21.2925 44.7764C21.3327 44.7764 21.3735 44.7753 21.4149 44.7733C21.373 44.7753 21.3316 44.7764 21.2914 44.7764ZM21.292 44.5796C20.8284 44.5801 20.424 44.4284 20.1086 44.143V44.1426L36.7 27.501L42.2318 33.0504L22.7923 44.1289C22.2545 44.4348 21.7449 44.5796 21.292 44.5796ZM20.1039 44.3362C20.0746 44.3094 20.0458 44.2811 20.0175 44.2517L20.1039 44.3362Z" fill="url(#paint2_linear_4435_13243)"/>
<path d="M36.6985 27.501L20.1054 10.8584C20.4208 10.5734 20.8247 10.4223 21.2877 10.4223C21.7418 10.4223 22.2518 10.5677 22.7907 10.8741L42.2297 21.9525L36.6985 27.501ZM42.3548 21.8272L22.7907 10.6779C22.2518 10.3714 21.7418 10.2261 21.2877 10.2261C21.2856 10.2261 21.2841 10.2261 21.2819 10.2261C21.2846 10.2261 21.2866 10.2261 21.2898 10.2261C21.7429 10.2261 22.2524 10.3709 22.7907 10.6774L42.3548 21.8272Z" fill="url(#paint3_linear_4435_13243)"/>
<path d="M21.4155 44.7734C21.8366 44.7492 22.3028 44.6039 22.7929 44.3253L42.2308 33.2474L22.7929 44.3253C22.3032 44.6044 21.8366 44.7492 21.4155 44.7734ZM20.1087 44.3399L20.1045 44.3363C20.106 44.3374 20.1076 44.3389 20.1087 44.3399ZM20.0181 44.2518L20.0097 44.2435V44.243C20.0129 44.2461 20.0155 44.2491 20.0181 44.2518Z" fill="black"/>
<path d="M42.2304 33.2471L42.3572 33.1752L42.2304 33.2471Z" fill="url(#paint4_linear_4435_13243)"/>
<path d="M21.2931 44.7764C20.8296 44.7764 20.4246 44.6247 20.1092 44.3392L20.1087 44.3398C20.1076 44.3387 20.106 44.3372 20.1045 44.3362L20.0181 44.2517C20.0155 44.249 20.0129 44.2459 20.0097 44.2428L20.1092 44.143C20.4246 44.4284 20.8291 44.5801 21.2926 44.5796C21.7455 44.5796 22.2551 44.4348 22.7929 44.1289L42.2325 33.0504L42.357 33.1754L42.2309 33.2472L22.7929 44.3251C22.3028 44.6037 21.8366 44.7491 21.4155 44.7733C21.3741 44.7753 21.3333 44.7764 21.2931 44.7764Z" fill="url(#paint5_linear_4435_13243)"/>
<path d="M20.0084 44.2432C19.6187 43.8296 19.3886 43.1874 19.3886 42.3557V42.3552C19.3886 43.1874 19.6187 43.8291 20.0084 44.2427V44.2432Z" fill="black"/>
<path d="M20.0084 44.2427C19.6187 43.8291 19.3886 43.1874 19.3886 42.3552V42.1595C19.3886 42.9911 19.6187 43.6333 20.0084 44.0469L20.1079 44.1425L20.0084 44.2427Z" fill="url(#paint6_linear_4435_13243)"/>
<path d="M20.0097 44.2427L20.1097 44.1425V44.1429L20.0097 44.2427Z" fill="url(#paint7_linear_4435_13243)"/>
<path d="M50.1581 28.1958C50.2617 27.969 50.3138 27.7361 50.3138 27.5031C50.3138 27.5027 50.3138 27.5021 50.3138 27.5021C50.3138 27.7356 50.2617 27.9685 50.1581 28.1958Z" fill="black"/>
<path d="M42.355 33.1753L42.2304 33.0504L48.9078 29.2446C49.7558 28.7614 50.2319 28.138 50.3115 27.503C50.3115 27.736 50.2596 27.969 50.1566 28.1957C49.9489 28.6527 49.5325 29.0846 48.9078 29.4408L42.355 33.1753Z" fill="url(#paint8_linear_4435_13243)"/>
<path d="M50.3124 27.501V27.5004C50.3119 26.7978 49.8437 26.0952 48.9088 25.5621L42.3559 21.8276H42.3554L42.3559 21.8272L48.9088 25.5615C49.8448 26.0947 50.3135 26.7983 50.3124 27.501Z" fill="#404040"/>
<path d="M50.312 27.5005C50.2324 26.864 49.7563 26.2411 48.9083 25.7578L42.2304 21.9526L42.355 21.8277H42.3555L48.9083 25.5621C49.8433 26.0953 50.3115 26.7978 50.312 27.5005Z" fill="url(#paint9_linear_4435_13243)"/>
<path d="M19.3886 12.6406C19.3886 12.6401 19.3886 12.6395 19.3886 12.639C19.3886 12.6395 19.3886 12.6401 19.3886 12.6406ZM19.3944 12.4223C19.3944 12.4213 19.3944 12.4202 19.3944 12.4191C19.3944 12.4202 19.3944 12.4213 19.3944 12.4223ZM19.3948 12.416C19.3948 12.4139 19.3948 12.4118 19.3948 12.4097C19.3948 12.4118 19.3948 12.4139 19.3948 12.416ZM19.3948 12.4081C19.4723 11.0281 20.2204 10.231 21.2787 10.2263C20.8199 10.229 20.4202 10.3801 20.1074 10.6629V10.6624L20.1036 10.6661C20.0707 10.6959 20.0394 10.7275 20.0084 10.76C19.6569 11.133 19.4351 11.6919 19.3948 12.4081Z" fill="#404040"/>
<path d="M19.3886 12.8442V12.648C19.3886 12.6453 19.3886 12.6431 19.3886 12.6406C19.3886 12.64 19.3886 12.6395 19.3886 12.639C19.3886 12.565 19.3906 12.4926 19.3944 12.4223C19.3944 12.4212 19.3944 12.4202 19.3944 12.4191C19.3944 12.4181 19.3944 12.4171 19.3948 12.416C19.3948 12.4138 19.3948 12.4118 19.3948 12.4097C19.3948 12.4091 19.3948 12.4086 19.3948 12.4081C19.4351 11.6918 19.6569 11.133 20.0084 10.76L20.1063 10.8586C19.6569 11.2653 19.3886 11.9437 19.3886 12.8442ZM20.1036 10.6661L20.1074 10.6623C20.1063 10.6639 20.1047 10.665 20.1036 10.6661Z" fill="url(#paint10_linear_4435_13243)"/>
<path d="M42.2319 21.9526L22.7929 10.8742C22.254 10.5678 21.744 10.4224 21.2899 10.4224C20.8269 10.4224 20.423 10.5735 20.1076 10.8584L20.0097 10.7598C20.0406 10.7273 20.072 10.6958 20.1049 10.6659C20.106 10.6649 20.1076 10.6638 20.1087 10.6627C20.4215 10.38 20.8212 10.2288 21.28 10.2262C21.2811 10.2262 21.2825 10.2262 21.2841 10.2262C21.2863 10.2262 21.2878 10.2262 21.2899 10.2262C21.744 10.2262 22.254 10.3715 22.7929 10.678L42.357 21.8273L42.3565 21.8277L42.2319 21.9526Z" fill="url(#paint11_linear_4435_13243)"/>
<defs>
<linearGradient id="paint0_linear_4435_13243" x1="35.2281" y1="12.3339" x2="12.6845" y2="34.8098" gradientUnits="userSpaceOnUse">
<stop stop-color="#00A0FF"/>
<stop offset="0.00657445" stop-color="#00A1FF"/>
<stop offset="0.2601" stop-color="#00BEFF"/>
<stop offset="0.5122" stop-color="#00D2FF"/>
<stop offset="0.7604" stop-color="#00DFFF"/>
<stop offset="1" stop-color="#00E3FF"/>
</linearGradient>
<linearGradient id="paint1_linear_4435_13243" x1="51.3452" y1="27.5017" x2="18.9393" y2="27.5017" gradientUnits="userSpaceOnUse">
<stop stop-color="#FFE000"/>
<stop offset="0.4087" stop-color="#FFBD00"/>
<stop offset="0.7754" stop-color="#FFA500"/>
<stop offset="1" stop-color="#FF9C00"/>
</linearGradient>
<linearGradient id="paint2_linear_4435_13243" x1="39.2829" y1="30.5843" x2="8.7122" y2="61.0633" gradientUnits="userSpaceOnUse">
<stop stop-color="#FF3A44"/>
<stop offset="1" stop-color="#C31162"/>
</linearGradient>
<linearGradient id="paint3_linear_4435_13243" x1="15.8047" y1="0.870907" x2="29.4557" y2="14.481" gradientUnits="userSpaceOnUse">
<stop stop-color="#32A071"/>
<stop offset="0.0685" stop-color="#2DA771"/>
<stop offset="0.4762" stop-color="#15CF74"/>
<stop offset="0.8009" stop-color="#06E775"/>
<stop offset="1" stop-color="#00F076"/>
</linearGradient>
<linearGradient id="paint4_linear_4435_13243" x1="51.3936" y1="27.502" x2="18.8196" y2="27.502" gradientUnits="userSpaceOnUse">
<stop stop-color="#CCB300"/>
<stop offset="0.4087" stop-color="#CC9700"/>
<stop offset="0.7754" stop-color="#CC8400"/>
<stop offset="1" stop-color="#CC7D00"/>
</linearGradient>
<linearGradient id="paint5_linear_4435_13243" x1="39.2836" y1="30.5843" x2="8.71285" y2="61.0633" gradientUnits="userSpaceOnUse">
<stop stop-color="#CC2E36"/>
<stop offset="1" stop-color="#9C0E4E"/>
</linearGradient>
<linearGradient id="paint6_linear_4435_13243" x1="35.2281" y1="12.3338" x2="12.6846" y2="34.8098" gradientUnits="userSpaceOnUse">
<stop stop-color="#008DE0"/>
<stop offset="0.00657445" stop-color="#008DE0"/>
<stop offset="0.2601" stop-color="#00A7E0"/>
<stop offset="0.5122" stop-color="#00B8E0"/>
<stop offset="0.7604" stop-color="#00C4E0"/>
<stop offset="1" stop-color="#00C7E0"/>
</linearGradient>
<linearGradient id="paint7_linear_4435_13243" x1="39.3844" y1="30.5848" x2="8.815" y2="61.2233" gradientUnits="userSpaceOnUse">
<stop stop-color="#E0333C"/>
<stop offset="1" stop-color="#AB0F56"/>
</linearGradient>
<linearGradient id="paint8_linear_4435_13243" x1="51.3447" y1="27.5018" x2="18.9388" y2="27.5018" gradientUnits="userSpaceOnUse">
<stop stop-color="#E0C500"/>
<stop offset="0.4087" stop-color="#E0A600"/>
<stop offset="0.7754" stop-color="#E09100"/>
<stop offset="1" stop-color="#E08900"/>
</linearGradient>
<linearGradient id="paint9_linear_4435_13243" x1="51.3452" y1="27.5018" x2="18.9393" y2="27.5018" gradientUnits="userSpaceOnUse">
<stop stop-color="#FFE840"/>
<stop offset="0.4087" stop-color="#FFCE40"/>
<stop offset="0.7754" stop-color="#FFBC40"/>
<stop offset="1" stop-color="#FFB540"/>
</linearGradient>
<linearGradient id="paint10_linear_4435_13243" x1="35.2281" y1="12.334" x2="12.6846" y2="34.81" gradientUnits="userSpaceOnUse">
<stop stop-color="#40B8FF"/>
<stop offset="0.00657445" stop-color="#40B9FF"/>
<stop offset="0.2601" stop-color="#40CEFF"/>
<stop offset="0.5122" stop-color="#40DDFF"/>
<stop offset="0.7604" stop-color="#40E7FF"/>
<stop offset="1" stop-color="#40EAFF"/>
</linearGradient>
<linearGradient id="paint11_linear_4435_13243" x1="15.8069" y1="0.870993" x2="29.4579" y2="14.4811" gradientUnits="userSpaceOnUse">
<stop stop-color="#65B895"/>
<stop offset="0.0685" stop-color="#62BD95"/>
<stop offset="0.4762" stop-color="#50DB97"/>
<stop offset="0.8009" stop-color="#44ED98"/>
<stop offset="1" stop-color="#40F498"/>
</linearGradient>
</defs>
</svg>
