<svg width="72" height="31" viewBox="0 0 72 31" fill="none" xmlns="http://www.w3.org/2000/svg">
<rect width="72" height="31" rx="8" fill="#FFF0DF"/>
<g clip-path="url(#clip0_25541_6056)">
<rect y="-0.442871" width="31" height="31.4429" rx="2" fill="white"/>
<path fill-rule="evenodd" clip-rule="evenodd" d="M0 3.54284H31V-0.442871H0V3.54284Z" fill="#262626"/>
<path fill-rule="evenodd" clip-rule="evenodd" d="M0 20.3715H31V16.8286H0V20.3715Z" fill="#262626"/>
<path fill-rule="evenodd" clip-rule="evenodd" d="M0 16.8286H31V10.1858H0V16.8286Z" fill="#ED1623"/>
<path fill-rule="evenodd" clip-rule="evenodd" d="M0 10.1858H31V3.54297H0V10.1858Z" fill="#FEE044"/>
<path fill-rule="evenodd" clip-rule="evenodd" d="M0 30.9999H31V27.457H0V30.9999Z" fill="#ED1623"/>
<path fill-rule="evenodd" clip-rule="evenodd" d="M0 27.4571H31V20.3713H0V27.4571Z" fill="#FEE044"/>
<path d="M15.0857 23.4714C19.4882 23.4714 23.0571 19.9025 23.0571 15.5C23.0571 11.0975 19.4882 7.52856 15.0857 7.52856C10.6832 7.52856 7.11429 11.0975 7.11429 15.5C7.11429 19.9025 10.6832 23.4714 15.0857 23.4714Z" fill="white"/>
<path d="M14.2885 12.3114C15.169 12.3114 15.8828 11.5976 15.8828 10.7171C15.8828 9.83659 15.169 9.1228 14.2885 9.1228C13.408 9.1228 12.6943 9.83659 12.6943 10.7171C12.6943 11.5976 13.408 12.3114 14.2885 12.3114Z" fill="#3E4347"/>
<path d="M14.6871 17.8914L15.0857 22.6742H15.4843V17.8914H14.6871Z" fill="#3E4347"/>
<path d="M14.2886 22.2755V22.6741H15.8829V21.877L14.2886 22.2755Z" fill="#3E4347"/>
<path d="M17.3974 19.6452C16.5205 18.29 15.7234 17.0146 14.8465 15.6595C14.6074 15.2609 13.89 15.6595 14.1291 16.058C14.8465 17.174 15.564 18.29 16.2814 19.4858H13.4117V19.8843C14.7668 19.8843 15.6437 20.2829 16.9988 20.2829C17.3974 20.2829 17.5568 19.964 17.3974 19.6452Z" fill="#3E4347"/>
<path d="M16.6003 15.5796C15.7235 15.2607 13.89 14.8622 15.0858 11.5142H13.6509C13.6509 11.5142 10.1435 18.4493 16.68 18.4493C18.1149 18.4493 18.7526 19.645 18.7526 21.0799C18.6729 21.0799 20.4266 16.9347 16.6003 15.5796Z" fill="#3E4347"/>
<path d="M13.0929 19.0872L13.4914 20.6814H13.89V19.0872H13.0929Z" fill="#3E4347"/>
<path d="M14.2886 9.91992L11.1 11.5142H14.2886V9.91992Z" fill="#3E4347"/>
<path d="M17.6221 15.8623V18.635C17.6221 18.635 18.8169 19.2231 18.2942 21.2396L19.1156 21.6597C19.1156 21.6597 20.4598 17.6267 17.6221 15.8623Z" fill="#ED4C5C"/>
<path d="M14.6871 15.5C14.6871 15.5 14.6871 17.5726 16.68 17.5726C16.68 17.5726 17.4771 15.5 14.6871 15.5Z" fill="#94989B"/>
<path d="M13.8103 16.5362C14.2065 16.5362 14.5277 15.9652 14.5277 15.2608C14.5277 14.5564 14.2065 13.9854 13.8103 13.9854C13.4141 13.9854 13.0929 14.5564 13.0929 15.2608C13.0929 15.9652 13.4141 16.5362 13.8103 16.5362Z" fill="#94989B"/>
</g>
<path d="M46.68 21.628C45.1973 21.628 44.04 21.2867 43.208 20.604C42.376 19.9213 41.96 18.972 41.96 17.756V10.796C41.96 10.6253 42.0347 10.4973 42.184 10.412C42.344 10.316 42.5893 10.268 42.92 10.268H43.48C43.8213 10.268 44.0667 10.316 44.216 10.412C44.3653 10.4973 44.44 10.6253 44.44 10.796V17.596C44.44 18.204 44.6373 18.6787 45.032 19.02C45.4267 19.3613 45.976 19.532 46.68 19.532C47.4053 19.532 47.9653 19.3613 48.36 19.02C48.7653 18.6787 48.968 18.204 48.968 17.596V10.796C48.968 10.6253 49.0427 10.4973 49.192 10.412C49.352 10.316 49.5973 10.268 49.928 10.268H50.488C50.8293 10.268 51.0747 10.316 51.224 10.412C51.3733 10.4973 51.448 10.6253 51.448 10.796V17.756C51.448 18.972 51.0267 19.9213 50.184 20.604C49.3413 21.2867 48.1733 21.628 46.68 21.628ZM58.3746 21.628C56.5826 21.628 55.2546 21.164 54.3906 20.236C53.5373 19.2973 53.1106 17.8413 53.1106 15.868C53.1106 13.9587 53.5586 12.5347 54.4546 11.596C55.3506 10.6467 56.684 10.172 58.4546 10.172C58.7106 10.172 58.972 10.188 59.2386 10.22C59.516 10.2413 59.788 10.2787 60.0546 10.332C60.3213 10.3853 60.5666 10.4493 60.7906 10.524C61.0253 10.5987 61.2226 10.684 61.3826 10.78C61.5106 10.8547 61.612 10.9347 61.6866 11.02C61.7613 11.1053 61.7986 11.196 61.7986 11.292C61.7986 11.3987 61.7666 11.5373 61.7026 11.708C61.6493 11.868 61.5746 12.028 61.4786 12.188C61.3933 12.348 61.2973 12.4813 61.1906 12.588C61.084 12.6947 60.9826 12.748 60.8866 12.748C60.7586 12.748 60.62 12.7267 60.4706 12.684C60.3213 12.6307 60.1506 12.5773 59.9586 12.524C59.7666 12.46 59.5426 12.4067 59.2866 12.364C59.0413 12.3107 58.748 12.284 58.4066 12.284C57.468 12.284 56.7693 12.5827 56.3106 13.18C55.8626 13.7773 55.6386 14.6787 55.6386 15.884C55.6386 16.7907 55.74 17.5107 55.9426 18.044C56.1453 18.5773 56.4493 18.9613 56.8546 19.196C57.26 19.42 57.7666 19.532 58.3746 19.532C58.6626 19.532 58.9453 19.5107 59.2226 19.468C59.5 19.4253 59.756 19.3667 59.9906 19.292C60.236 19.2173 60.428 19.1373 60.5666 19.052L59.7826 20.236V17.004H58.1346C57.8146 17.004 57.6546 16.7373 57.6546 16.204V15.74C57.6546 15.2067 57.8146 14.94 58.1346 14.94H61.5586C61.9533 14.94 62.1506 15.1533 62.1506 15.58V20.348C62.1506 20.4867 62.108 20.6147 62.0226 20.732C61.948 20.8387 61.8253 20.9347 61.6546 21.02C61.4413 21.1373 61.1533 21.244 60.7906 21.34C60.428 21.4253 60.0333 21.4947 59.6066 21.548C59.1906 21.6013 58.78 21.628 58.3746 21.628Z" fill="#FF8800"/>
<defs>
<clipPath id="clip0_25541_6056">
<rect width="31" height="31" fill="white" transform="matrix(-1 0 0 1 31 0)"/>
</clipPath>
</defs>
</svg>
